<svg width="60" height="60" viewBox="0 0 60 60" fill="none" xmlns="http://www.w3.org/2000/svg">
<path d="M60 30.0007C60 46.5695 46.5695 60 29.9993 60C13.4305 60 0 46.5695 0 30.0007C0 13.4319 13.4319 0 29.9993 0C46.5695 0 60 13.4319 60 30.0007Z" fill="#0198FF"/>
<path d="M23.2868 32.6987C22.7064 32.6987 22.2231 32.8792 21.8468 33.236C21.4733 33.5957 21.2845 34.0303 21.2845 34.5274C21.2845 35.387 21.6011 36.284 22.2245 37.1922C22.8439 38.1003 23.6617 38.8349 24.6546 39.375C26.0501 40.1318 27.8511 40.5165 30.0076 40.5165C31.8031 40.5165 33.3778 40.2346 34.6886 39.6819C36.0008 39.1306 37.0117 38.3558 37.6908 37.3782C38.3712 36.3993 38.7155 35.2814 38.7142 34.0553C38.7142 33.0319 38.5156 32.1571 38.1226 31.4545C37.7338 30.7491 37.1784 30.1575 36.4716 29.6965C35.7745 29.2369 34.9163 28.8397 33.9179 28.5176C32.9043 28.1926 31.7753 27.8941 30.5645 27.6317C29.4827 27.3762 28.8273 27.2123 28.4427 27.104C28.0108 26.9818 27.5859 26.8152 27.1777 26.6069C26.7569 26.3916 26.4251 26.1361 26.1959 25.8473C25.9585 25.5529 25.8418 25.2127 25.8405 24.8045C25.8418 24.1504 26.1848 23.6033 26.8888 23.134C27.5859 22.673 28.5163 22.4383 29.6508 22.4383C30.8783 22.4383 31.7795 22.6535 32.328 23.077C32.8779 23.502 33.3611 24.1032 33.7582 24.867C34.0693 25.4099 34.3498 25.7876 34.6206 26.0292C34.883 26.2653 35.276 26.3861 35.787 26.3861C36.348 26.3861 36.8215 26.1875 37.1923 25.7945C37.5672 25.4002 37.7588 24.9503 37.7588 24.4573C37.7588 23.9227 37.6074 23.3659 37.3089 22.8021C37.0117 22.2439 36.5327 21.6982 35.8842 21.1844C35.2413 20.6762 34.4192 20.2596 33.4403 19.9485C32.4599 19.6403 31.2865 19.4847 29.9507 19.4847C28.2733 19.4847 26.793 19.7208 25.553 20.1874C24.3116 20.6498 23.3507 21.326 22.6911 22.1953C22.0357 23.0604 21.7052 24.0657 21.7052 25.1808C21.7052 26.3528 22.019 27.347 22.6397 28.1357C23.2604 28.9217 24.1103 29.5507 25.1684 30.0075C26.2251 30.463 27.5554 30.8685 29.1217 31.2087C30.2909 31.4545 31.2379 31.6919 31.935 31.9127C32.6321 32.1321 33.2097 32.4556 33.6485 32.8736C34.0887 33.2916 34.3026 33.8234 34.3026 34.5011C34.3026 35.355 33.904 36.048 33.0806 36.6159C32.2697 37.1797 31.1949 37.4629 29.8882 37.4629C28.9329 37.4629 28.1566 37.3227 27.579 37.0436C26.9985 36.7659 26.5403 36.4062 26.2168 35.9744C25.8932 35.537 25.5891 34.9926 25.3156 34.358C25.0934 33.8193 24.8143 33.4027 24.4866 33.1194C24.1589 32.8417 23.7576 32.7 23.2882 32.7L23.2868 32.6987ZM37.713 47.6192C35.8953 47.6192 34.1151 47.1206 32.5654 46.1778L32.5293 46.1556L32.4863 46.1625C31.674 46.2889 30.8352 46.3528 29.9979 46.3528C20.9817 46.3528 13.6472 39.0168 13.6472 29.9992C13.6472 29.173 13.7083 28.3607 13.8346 27.5122L13.8416 27.4706L13.8193 27.4345C12.8765 25.8848 12.3808 24.1046 12.3808 22.2869C12.3808 16.8242 16.8243 12.3793 22.2856 12.3793C24.1047 12.3793 25.8849 12.8778 27.4332 13.8192L27.4707 13.8415L27.5123 13.8345C28.3385 13.7082 29.1745 13.654 30.0007 13.6443C39.464 13.5221 46.3542 20.9803 46.3542 29.9992C46.3542 30.8338 46.289 31.6711 46.164 32.4876L46.1571 32.5292L46.1793 32.5653C47.1235 34.1122 47.622 35.8924 47.622 37.7129C47.622 43.1742 43.1771 47.6178 37.7171 47.6178L37.713 47.6192Z" fill="white"/>
</svg>
