<?xml version="1.0" encoding="UTF-8"?>
<!DOCTYPE svg PUBLIC "-//W3C//DTD SVG 1.1//EN" "http://www.w3.org/Graphics/SVG/1.1/DTD/svg11.dtd">
<!-- Creator: CorelDRAW 2020 (64-Bit) -->
<svg xmlns="http://www.w3.org/2000/svg" xml:space="preserve" width="833px" height="677px" version="1.1" style="shape-rendering:geometricPrecision; text-rendering:geometricPrecision; image-rendering:optimizeQuality; fill-rule:evenodd; clip-rule:evenodd"
viewBox="0 0 20917 16999"
 xmlns:xlink="http://www.w3.org/1999/xlink"
 xmlns:xodm="http://www.corel.com/coreldraw/odm/2003"
 xmlns:dc="http://purl.org/dc/elements/1.1/"
 xmlns:cc="http://creativecommons.org/ns#"
 xmlns:rdf="http://www.w3.org/1999/02/22-rdf-syntax-ns#"
 xmlns:svg="http://www.w3.org/2000/svg">
 <defs>
  <style type="text/css">
   <![CDATA[
    .fil0 {fill:white;fill-rule:nonzero}
   ]]>
  </style>
 </defs>
 <g id="Слой_x0020_1">
  <metadata id="CorelCorpID_0Corel-Layer"/>
  <g id="_2649618869232">
   <g id="g10">
    <g id="g12">
     <path id="path14" class="fil0" d="M20917 2012c-769,342 -1596,572 -2464,676 885,-531 1566,-1372 1886,-2374 -829,492 -1747,849 -2725,1041 -783,-834 -1898,-1355 -3132,-1355 -2370,0 -4292,1921 -4292,4291 0,337 38,664 111,978 -3566,-179 -6728,-1887 -8845,-4484 -369,634 -581,1371 -581,2158 0,1489 758,2802 1909,3572 -703,-22 -1365,-215 -1943,-537 -1,18 -1,36 -1,54 0,2079 1479,3814 3443,4208 -361,98 -740,151 -1131,151 -277,0 -545,-27 -807,-77 546,1704 2131,2945 4008,2980 -1468,1151 -3319,1837 -5329,1837 -347,0 -688,-21 -1024,-60 1899,1217 4155,1928 6578,1928 7894,0 12210,-6539 12210,-12210 0,-186 -4,-371 -12,-555 838,-605 1566,-1361 2141,-2222z"/>
    </g>
   </g>
  </g>
 </g>
</svg>
