<svg width="60" height="60" viewBox="0 0 60 60" fill="none" xmlns="http://www.w3.org/2000/svg">
<path d="M60 29.9993C60 46.5681 46.5684 60 30 60C13.4316 60 0 46.5681 0 29.9993C0 13.4305 13.4316 0 30 0C46.5684 0 60 13.4305 60 29.9993Z" fill="#009D1C"/>
<path fill-rule="evenodd" clip-rule="evenodd" d="M19.4316 53.5474C19.4177 53.5474 19.4052 53.5474 19.3913 53.5474H19.4705C19.458 53.5474 19.4441 53.5474 19.4316 53.5474ZM2.87153 28.5651C2.86875 27.4057 2.95068 26.2656 3.12841 25.1589C4.89189 14.2056 16.6017 2.93298 24.9942 2.93298C25.4594 2.93298 25.9134 2.9677 26.3564 3.03852C32.4147 4.0147 34.492 11.5798 34.4892 20.0516C34.492 11.5798 32.4133 4.0147 26.3564 3.03852C25.9134 2.9677 25.4594 2.93298 24.9942 2.93298C16.6017 2.93298 4.89189 14.2056 3.12841 25.1589C2.95762 26.2226 2.87431 27.3182 2.87153 28.4332V28.5651Z" fill="url(#paint0_radial)"/>
<path fill-rule="evenodd" clip-rule="evenodd" d="M47.3182 29.1234C47.1377 22.036 42.3527 15.6943 35.6181 13.5086C28.7711 11.2868 21.0382 13.6849 16.7031 19.4379C14.5785 22.2568 13.3663 25.756 13.3191 29.2914C13.2886 31.5521 13.7149 33.8099 14.5716 35.9039C14.7716 36.3941 14.9951 36.8746 15.2409 37.3439C15.3214 37.4994 15.7991 38.1382 15.7505 38.2826C15.6797 38.4909 15.6089 38.6992 15.5394 38.9061C14.5869 41.7097 13.6343 44.5119 12.6818 47.3154C14.3772 46.778 16.0713 46.2407 17.7681 45.7033C18.8553 45.3589 19.944 45.0145 21.0326 44.6688C21.3367 44.573 21.6394 44.4771 21.9435 44.3813C21.9977 44.3647 22.0504 44.3466 22.1032 44.3299C22.1573 44.3133 22.4059 44.4869 22.4601 44.5146C22.7364 44.6577 23.0155 44.7924 23.2974 44.9187C30.3388 48.0819 38.8799 46.0268 43.6871 39.9975C44.8632 38.5228 45.7894 36.8523 46.4115 35.0722C47.0919 33.1281 47.3196 31.1702 47.3196 29.1262L47.3182 29.1234ZM38.1217 32.9532C37.5538 32.6879 36.9956 32.4033 36.4318 32.1297C35.975 31.9075 35.2932 31.4354 34.7572 31.5007C34.417 31.5409 34.2323 31.9631 34.0407 32.2075C33.7797 32.5394 33.5047 32.8615 33.227 33.1795C33.0187 33.4197 32.8021 33.7238 32.4411 33.6544C32.1772 33.6044 31.8968 33.4419 31.6468 33.335C29.8472 32.5574 28.3129 31.2757 27.1465 29.7066C26.8202 29.2692 26.0439 28.4471 26.4869 27.9C26.9993 27.2654 28.0046 26.5406 27.613 25.6283C27.3728 25.0631 27.1451 24.4938 26.9104 23.9259C26.7688 23.5843 26.6271 23.2413 26.4827 22.8997C26.3425 22.5678 26.2189 22.1249 25.8898 21.9346C25.6801 21.8124 25.3816 21.8791 25.1525 21.8666C24.6651 21.843 24.2096 21.8069 23.7903 22.1026C23.3335 22.4248 22.91 22.9594 22.6295 23.4371C21.0493 26.1185 22.8489 28.9873 24.4832 31.1508C25.3955 32.3588 26.4425 33.4753 27.6255 34.4223C29.1932 35.6762 30.9692 36.4413 32.8688 37.0523C33.645 37.3036 34.5503 37.6258 35.3779 37.455C35.6237 37.4036 35.8819 37.38 36.1236 37.3189C36.897 37.1259 37.6788 36.6496 38.2258 36.0733C38.7202 35.5498 38.9035 34.8153 38.9618 34.1126C38.9785 33.9071 39.0048 33.6461 38.9201 33.4503C38.809 33.1948 38.3439 33.067 38.1189 32.9545L38.1217 32.9532ZM30.3193 43.7453C28.4059 43.7453 26.4994 43.3593 24.7373 42.6122C24.2985 42.4262 23.8708 42.2193 23.4543 41.9915C23.2654 41.8888 23.0794 41.7805 22.8947 41.6694C22.8308 41.6319 22.5142 41.3778 22.4517 41.3972C22.2351 41.4667 22.0171 41.5361 21.7991 41.6041C20.1911 42.1151 18.5832 42.6261 16.9752 43.1371C17.557 41.3986 18.1402 39.6601 18.7234 37.9216C18.7817 37.7466 18.4749 37.4786 18.3791 37.3356C18.0708 36.8746 17.7903 36.3941 17.539 35.8984C17.0474 34.9305 16.6697 33.9071 16.4142 32.8532C15.906 30.7508 15.9074 28.5638 16.3781 26.4559C17.1446 23.0316 19.215 19.9711 22.081 17.9521C25.0345 15.872 28.7267 14.9861 32.3036 15.4804C35.7959 15.9623 39.0395 17.7605 41.3099 20.4571C43.6635 23.2524 44.8382 26.8669 44.5869 30.5106C44.348 33.989 42.7873 37.2967 40.2823 39.7198C37.7593 42.1568 34.3754 43.6023 30.8692 43.7356C30.6859 43.7426 30.5026 43.7467 30.3193 43.7467V43.7453Z" fill="white"/>
<defs>
<radialGradient id="paint0_radial" cx="0" cy="0" r="1" gradientUnits="userSpaceOnUse" gradientTransform="translate(-3.45542 25.2385) rotate(-80.8587) scale(47.6629 47.6546)">
<stop stop-color="#00C851"/>
<stop offset="1" stop-color="#00C34B"/>
</radialGradient>
</defs>
</svg>
